<svg width="800" height="600" viewBox="0 0 800 600" fill="none" xmlns="http://www.w3.org/2000/svg">
  <rect width="800" height="600" rx="36" fill="#F4EFE4"/>
  <rect x="500" y="80" width="160" height="160" rx="28" fill="#0F3B66" fill-opacity="0.12"/>
  <path d="M154 282C154 241.131 187.131 208 228 208H334C374.869 208 408 241.131 408 282V324C408 364.869 374.869 398 334 398H228C187.131 398 154 364.869 154 324V282Z" stroke="#C79A3B" stroke-width="11"/>
  <path d="M392 282C392 241.131 425.131 208 466 208H572C612.869 208 646 241.131 646 282V324C646 364.869 612.869 398 572 398H466C425.131 398 392 364.869 392 324V282Z" stroke="#C79A3B" stroke-width="11"/>
  <path d="M405 300H395" stroke="#C79A3B" stroke-width="9" stroke-linecap="round"/>
  <text x="78" y="520" fill="#101114" font-family="Arial, sans-serif" font-size="42">Altavista Gold</text>
</svg>