<svg width="800" height="600" viewBox="0 0 800 600" fill="none" xmlns="http://www.w3.org/2000/svg">
  <rect width="800" height="600" rx="36" fill="#EEF2F5"/>
  <circle cx="186" cy="128" r="88" fill="#0F3B66" fill-opacity="0.1"/>
  <path d="M158 284C158 243.131 191.131 210 232 210H330C370.869 210 404 243.131 404 284V322C404 362.869 370.869 396 330 396H232C191.131 396 158 362.869 158 322V284Z" stroke="#A6B1BC" stroke-width="12"/>
  <path d="M396 284C396 243.131 429.131 210 470 210H568C608.869 210 642 243.131 642 284V322C642 362.869 608.869 396 568 396H470C429.131 396 396 362.869 396 322V284Z" stroke="#A6B1BC" stroke-width="12"/>
  <path d="M397 301H403" stroke="#A6B1BC" stroke-width="10" stroke-linecap="round"/>
  <text x="78" y="520" fill="#101114" font-family="Arial, sans-serif" font-size="42">Clear Studio</text>
</svg>