<svg width="800" height="600" viewBox="0 0 800 600" fill="none" xmlns="http://www.w3.org/2000/svg">
  <rect width="800" height="600" rx="36" fill="#F6F0E6"/>
  <circle cx="650" cy="440" r="130" fill="#C79A3B" fill-opacity="0.12"/>
  <path d="M164 286C164 245.131 197.131 212 238 212H330C370.869 212 404 245.131 404 286V320C404 360.869 370.869 394 330 394H238C197.131 394 164 360.869 164 320V286Z" stroke="#B89568" stroke-width="12"/>
  <path d="M396 286C396 245.131 429.131 212 470 212H562C602.869 212 636 245.131 636 286V320C636 360.869 602.869 394 562 394H470C429.131 394 396 360.869 396 320V286Z" stroke="#B89568" stroke-width="12"/>
  <path d="M398 302H402" stroke="#B89568" stroke-width="10" stroke-linecap="round"/>
  <text x="78" y="520" fill="#101114" font-family="Arial, sans-serif" font-size="42">Soft Champagne</text>
</svg>