<svg width="800" height="600" viewBox="0 0 800 600" fill="none" xmlns="http://www.w3.org/2000/svg">
  <rect width="800" height="600" rx="36" fill="#EAE3D6"/>
  <circle cx="640" cy="140" r="90" fill="#C79A3B" fill-opacity="0.22"/>
  <path d="M162 274C162 242.52 187.52 217 219 217H337C368.48 217 394 242.52 394 274V332C394 363.48 368.48 389 337 389H219C187.52 389 162 363.48 162 332V274Z" stroke="#101114" stroke-width="12"/>
  <path d="M406 274C406 242.52 431.52 217 463 217H581C612.48 217 638 242.52 638 274V332C638 363.48 612.48 389 581 389H463C431.52 389 406 363.48 406 332V274Z" stroke="#101114" stroke-width="12"/>
  <path d="M393 301H407" stroke="#101114" stroke-width="10" stroke-linecap="round"/>
  <text x="78" y="520" fill="#101114" font-family="Arial, sans-serif" font-size="42">Premium Black</text>
</svg>